<?xml version="1.0" standalone="no"?>
<!DOCTYPE svg PUBLIC "-//W3C//DTD SVG 20010904//EN"
 "http://www.w3.org/TR/2001/REC-SVG-20010904/DTD/svg10.dtd">
<svg version="1.0" xmlns="http://www.w3.org/2000/svg"
 width="256.000000pt" height="256.000000pt" viewBox="0 0 256.000000 256.000000"
 preserveAspectRatio="xMidYMid meet">

<g transform="translate(0.000000,256.000000) scale(0.100000,-0.100000)"
fill="#000000" stroke="none">
<path d="M933 2195 c-445 -81 -805 -446 -855 -866 -24 -205 43 -368 181 -438
l39 -21 -16 -50 c-14 -43 -14 -59 -4 -113 28 -136 114 -256 222 -306 77 -36
201 -41 283 -13 103 37 220 136 306 260 l23 33 36 -32 c110 -97 274 -113 444
-45 l61 25 40 -39 c21 -22 64 -52 95 -67 52 -25 67 -28 167 -28 103 0 114 2
177 32 74 35 144 98 171 155 22 46 22 135 0 189 -15 39 -15 49 1 158 22 151
84 401 141 571 25 74 45 150 45 169 0 90 -46 160 -138 209 -124 66 -256 79
-376 37 -101 -35 -140 -65 -199 -155 -28 -44 -55 -80 -58 -80 -4 0 -14 20 -23
44 -25 66 -86 154 -147 214 -137 136 -386 199 -616 157z m247 -216 c180 -29
296 -144 347 -345 14 -55 18 -113 18 -282 0 -116 2 -212 5 -212 3 1 102 143
220 317 119 174 222 319 230 323 8 4 29 15 47 24 39 20 98 21 153 1 73 -26 72
-20 20 -183 -81 -250 -150 -585 -150 -728 0 -33 7 -72 15 -88 14 -26 14 -31
-2 -49 -41 -46 -145 -62 -204 -32 -49 26 -69 69 -69 152 0 77 32 251 78 426
16 59 25 106 21 105 -5 -2 -97 -138 -204 -303 -122 -186 -205 -303 -218 -308
-12 -5 -52 -10 -89 -10 -61 -2 -70 1 -94 25 l-27 27 12 208 c6 114 14 240 17
280 3 41 1 74 -5 77 -5 4 -35 -40 -67 -96 -179 -323 -302 -514 -393 -611 -77
-82 -122 -107 -190 -107 -42 0 -56 5 -85 30 -32 29 -55 67 -71 118 -6 20 -3
22 32 22 26 0 55 10 84 29 85 54 168 163 389 516 47 75 102 154 123 176 36 38
40 39 104 39 l66 0 -7 42 c-15 95 -66 172 -141 211 -32 16 -58 21 -126 20 -79
0 -94 -3 -164 -36 -178 -85 -304 -293 -305 -503 0 -47 5 -67 21 -88 24 -31 19
-42 -38 -77 -48 -30 -132 -31 -170 -3 -48 36 -65 68 -70 135 -19 250 182 548
462 684 154 75 282 97 425 74z"/>
</g>
</svg>
