<?xml version="1.0" standalone="no"?>
<!DOCTYPE svg PUBLIC "-//W3C//DTD SVG 20010904//EN"
 "http://www.w3.org/TR/2001/REC-SVG-20010904/DTD/svg10.dtd">
<svg version="1.0" xmlns="http://www.w3.org/2000/svg"
 width="2400.000000pt" height="2400.000000pt" viewBox="0 0 2400.000000 2400.000000"
 preserveAspectRatio="xMidYMid meet">

<g transform="translate(0.000000,2400.000000) scale(0.100000,-0.100000)"
fill="#000000" stroke="none">
<path d="M6855 18644 c-376 -28 -607 -55 -905 -108 -696 -124 -1388 -337
-1885 -581 -445 -218 -1101 -745 -1975 -1586 -957 -922 -2013 -2124 -2046
-2331 -5 -29 1 -42 40 -94 69 -92 330 -342 881 -844 540 -491 803 -737 905
-846 60 -64 75 -91 194 -339 71 -149 180 -387 241 -530 385 -891 597 -1281
840 -1543 232 -251 479 -259 618 -21 64 110 125 350 171 684 32 227 44 350
106 1097 86 1038 142 1516 246 2078 183 994 432 1659 914 2435 480 774 1216
1640 1988 2339 168 153 170 156 79 176 -53 11 -323 21 -412 14z"/>
<path d="M16890 18639 c-86 -9 -130 -23 -130 -42 0 -7 42 -49 93 -94 50 -45
183 -168 294 -275 729 -697 1373 -1487 1813 -2223 428 -718 645 -1296 824
-2200 116 -585 186 -1162 276 -2275 61 -760 91 -1032 141 -1285 88 -446 194
-600 413 -597 176 3 404 221 625 597 121 206 281 529 436 880 75 171 220 479
321 686 101 207 184 381 184 387 0 13 311 320 500 493 74 68 308 282 520 474
375 341 596 550 733 692 l67 70 0 112 0 113 -67 96 c-260 374 -856 1043 -1557
1750 -918 925 -1680 1577 -2207 1885 -287 168 -855 379 -1396 518 -672 172
-1509 278 -1883 238z"/>
<path d="M6800 14749 c-498 -57 -940 -329 -1212 -749 -388 -597 -346 -1372
104 -1931 237 -294 566 -497 941 -578 197 -43 466 -45 662 -5 l80 16 155 157
c243 244 613 576 891 799 l109 87 25 80 c100 330 95 678 -15 1007 -163 486
-554 877 -1039 1038 -236 79 -471 105 -701 79z m692 -490 c175 -37 307 -177
340 -359 28 -161 -52 -332 -198 -426 -116 -75 -280 -86 -404 -28 -95 45 -162
110 -207 202 -37 75 -38 78 -38 192 0 110 2 119 32 181 89 179 285 278 475
238z"/>
<path d="M17130 14750 c-597 -74 -1099 -442 -1337 -983 -106 -240 -153 -514
-133 -779 15 -190 52 -349 121 -513 28 -65 37 -76 137 -159 200 -165 436 -380
632 -572 l195 -192 80 -25 c243 -76 557 -92 803 -41 504 104 927 427 1152 879
202 405 233 837 90 1266 -80 241 -198 434 -379 623 -251 259 -563 423 -920
482 -109 19 -343 26 -441 14z m-168 -491 c127 -27 241 -116 297 -232 106 -217
20 -467 -197 -574 -74 -37 -79 -38 -187 -38 -108 0 -113 1 -187 38 -218 107
-303 357 -196 577 84 173 281 269 470 229z"/>
<path d="M11980 13339 c-596 -65 -1133 -364 -1312 -729 -19 -41 -41 -71 -53
-75 -344 -108 -567 -196 -840 -330 -841 -414 -1560 -1025 -2181 -1855 -388
-517 -564 -901 -629 -1370 -18 -129 -37 -870 -30 -1145 3 -88 7 -260 10 -383
12 -508 71 -1025 156 -1382 177 -740 468 -1095 999 -1214 93 -21 246 -43 470
-66 346 -36 509 -74 683 -162 278 -139 627 -243 982 -292 311 -42 229 -41
2270 -34 1225 4 1271 5 1555 44 339 45 715 156 980 289 187 94 361 131 760
165 406 34 583 72 753 163 209 111 357 279 488 552 186 390 293 972 328 1780
12 263 25 952 22 1155 -7 568 -76 891 -275 1285 -303 599 -964 1368 -1608
1869 -483 376 -1054 684 -1613 870 l-140 46 -42 88 c-92 192 -282 374 -533
510 -171 92 -420 172 -640 207 -125 19 -441 27 -560 14z"/>
</g>
</svg>
